<svg width="278" height="60" viewBox="0 0 278 60" fill="none" xmlns="http://www.w3.org/2000/svg">
<path d="M17.28 58.176H0C0 44.992 5.376 34.4 16.128 26.4L2.304 0H31.872L39.36 14.4C41.216 12.288 42.56 10.208 43.392 8.16C44.288 6.048 44.736 3.328 44.736 0H62.016C62.016 6.784 60.64 12.736 57.888 17.856C55.136 22.912 51.776 27.072 47.808 30.336L62.496 58.176H32.928L24.096 41.472C19.552 46.336 17.28 51.904 17.28 58.176Z" fill="white"/>
<path d="M94.5503 35.808C94.5503 39.712 95.1903 42.368 96.4703 43.776C97.7503 45.12 99.3503 45.792 101.27 45.792C104.278 45.792 107.318 45.28 110.39 44.256L111.83 43.776L115.958 52.032C115.382 52.544 114.518 53.216 113.366 54.048C112.214 54.816 109.622 55.872 105.59 57.216C101.622 58.496 97.4943 59.136 93.2063 59.136C88.9823 59.136 85.4303 58.528 82.5503 57.312C79.6703 56.096 77.4623 54.688 75.9263 53.088C74.3903 51.424 73.1423 49.248 72.1823 46.56C71.2223 43.808 70.5823 41.472 70.2623 39.552C70.0063 37.632 69.7822 35.232 69.5902 32.352L67.2863 0H110.486L113.174 11.52L96.8543 12.96L95.8943 22.272H108.758L110.678 31.296L94.5503 35.328V35.808Z" fill="white"/>
<path d="M151.72 29.088C154.664 29.088 157.001 28.192 158.729 26.4C160.456 24.608 161.32 22.432 161.32 19.872C161.32 17.248 160.488 15.296 158.824 14.016C157.224 12.672 155.144 12 152.584 12H148.744L147.112 29.088H151.72ZM157.768 41.376H145.865L144.232 58.176H125.513L119.753 0H162.568C169.288 0 174.729 1.728 178.889 5.184C183.113 8.576 185.225 13.472 185.225 19.872C185.225 23.776 184.424 27.168 182.824 30.048C181.288 32.928 179.176 35.168 176.488 36.768C171.304 39.84 165.064 41.376 157.768 41.376Z" fill="white"/>
<path d="M232.256 58.176L228.416 48.48H203.936L200.288 58.176H186.656L202.88 0H237.056L253.28 58.176H232.256ZM223.52 36L215.936 16.8L208.64 36H223.52Z" fill="white"/>
<path d="M274.625 42.528C272.449 41.12 269.665 40.416 266.273 40.416C262.881 40.416 260.096 41.12 257.921 42.528L255.329 0H277.217L274.625 42.528ZM260.801 47.328C262.017 45.984 263.841 45.312 266.273 45.312C268.705 45.312 270.529 45.984 271.745 47.328C272.961 48.608 273.569 50.24 273.569 52.224C273.569 54.208 272.961 55.872 271.745 57.216C270.529 58.496 268.705 59.136 266.273 59.136C263.841 59.136 262.017 58.496 260.801 57.216C259.585 55.872 258.977 54.208 258.977 52.224C258.977 50.24 259.585 48.608 260.801 47.328Z" fill="white"/>
</svg>
